<mxfile host="app.diagrams.net" modified="2021-04-20T03:28:58.902Z" agent="5.0 (Macintosh; Intel Mac OS X 10_14_6) AppleWebKit/537.36 (KHTML, like Gecko) Chrome/89.0.4389.114 Safari/537.36" etag="Wdmn20mU6Vfm66Oov8bV" version="14.6.0" type="github">
  <diagram id="fIyZBcIgJWvtrOWECe9i" name="第 1 页">
    <mxGraphModel dx="1426" dy="803" grid="0" gridSize="10" guides="1" tooltips="1" connect="1" arrows="1" fold="1" page="1" pageScale="1" pageWidth="1169" pageHeight="1654" math="0" shadow="0">
      <root>
        <mxCell id="0" />
        <mxCell id="1" parent="0" />
        <mxCell id="ocNy0kaPVooyLEyPjIVk-20" value="" style="rounded=0;whiteSpace=wrap;html=1;align=left;" vertex="1" parent="1">
          <mxGeometry x="120" y="200" width="930" height="400" as="geometry" />
        </mxCell>
        <mxCell id="ocNy0kaPVooyLEyPjIVk-6" value="" style="edgeStyle=orthogonalEdgeStyle;rounded=0;orthogonalLoop=1;jettySize=auto;html=1;" edge="1" parent="1" source="ocNy0kaPVooyLEyPjIVk-1" target="ocNy0kaPVooyLEyPjIVk-5">
          <mxGeometry relative="1" as="geometry" />
        </mxCell>
        <mxCell id="ocNy0kaPVooyLEyPjIVk-1" value="申请人" style="rounded=1;whiteSpace=wrap;html=1;fillColor=#dae8fc;strokeColor=#6c8ebf;" vertex="1" parent="1">
          <mxGeometry x="140" y="350" width="90" height="40" as="geometry" />
        </mxCell>
        <mxCell id="ocNy0kaPVooyLEyPjIVk-8" value="" style="edgeStyle=orthogonalEdgeStyle;rounded=0;orthogonalLoop=1;jettySize=auto;html=1;" edge="1" parent="1" source="ocNy0kaPVooyLEyPjIVk-5" target="ocNy0kaPVooyLEyPjIVk-7">
          <mxGeometry relative="1" as="geometry" />
        </mxCell>
        <mxCell id="ocNy0kaPVooyLEyPjIVk-5" value="1、发邮件给所属区域副总裁审批，抄送&lt;font color=&quot;#ff0000&quot; style=&quot;font-size: 14px&quot;&gt;eppsystem@rp-pet.cn&lt;/font&gt;&lt;br&gt;2、邮件中必须携带《瑞鹏EPP权限开通名单申请模板.xlsx》" style="whiteSpace=wrap;html=1;rounded=1;align=left;fillColor=#ffe6cc;strokeColor=#d79b00;" vertex="1" parent="1">
          <mxGeometry x="270" y="340" width="350" height="60" as="geometry" />
        </mxCell>
        <mxCell id="ocNy0kaPVooyLEyPjIVk-10" value="" style="edgeStyle=orthogonalEdgeStyle;rounded=0;orthogonalLoop=1;jettySize=auto;html=1;" edge="1" parent="1" source="ocNy0kaPVooyLEyPjIVk-7" target="ocNy0kaPVooyLEyPjIVk-9">
          <mxGeometry relative="1" as="geometry" />
        </mxCell>
        <mxCell id="ocNy0kaPVooyLEyPjIVk-14" value="" style="edgeStyle=orthogonalEdgeStyle;rounded=0;orthogonalLoop=1;jettySize=auto;html=1;" edge="1" parent="1" source="ocNy0kaPVooyLEyPjIVk-7" target="ocNy0kaPVooyLEyPjIVk-13">
          <mxGeometry relative="1" as="geometry" />
        </mxCell>
        <mxCell id="ocNy0kaPVooyLEyPjIVk-7" value="副总裁审批" style="rhombus;whiteSpace=wrap;html=1;rounded=1;align=center;" vertex="1" parent="1">
          <mxGeometry x="670" y="330" width="90" height="80" as="geometry" />
        </mxCell>
        <mxCell id="ocNy0kaPVooyLEyPjIVk-12" value="" style="edgeStyle=orthogonalEdgeStyle;rounded=0;orthogonalLoop=1;jettySize=auto;html=1;" edge="1" parent="1" source="ocNy0kaPVooyLEyPjIVk-9" target="ocNy0kaPVooyLEyPjIVk-11">
          <mxGeometry relative="1" as="geometry" />
        </mxCell>
        <mxCell id="ocNy0kaPVooyLEyPjIVk-9" value="审批通过" style="whiteSpace=wrap;html=1;rounded=1;fillColor=#d5e8d4;strokeColor=#82b366;" vertex="1" parent="1">
          <mxGeometry x="655" y="240" width="120" height="60" as="geometry" />
        </mxCell>
        <mxCell id="ocNy0kaPVooyLEyPjIVk-11" value="eppsystem@rp-pet.cn项目组同事根据附件内容开通权限" style="whiteSpace=wrap;html=1;rounded=1;fillColor=#f5f5f5;strokeColor=#666666;fontColor=#333333;" vertex="1" parent="1">
          <mxGeometry x="820" y="240" width="190" height="60" as="geometry" />
        </mxCell>
        <mxCell id="ocNy0kaPVooyLEyPjIVk-13" value="审批不通过" style="whiteSpace=wrap;html=1;rounded=1;fillColor=#f8cecc;strokeColor=#b85450;" vertex="1" parent="1">
          <mxGeometry x="655" y="440" width="120" height="60" as="geometry" />
        </mxCell>
        <mxCell id="ocNy0kaPVooyLEyPjIVk-16" value="&lt;font style=&quot;font-size: 15px&quot;&gt;注意事项：&lt;br&gt;1、必须&lt;font color=&quot;#ff0000&quot;&gt;副总裁级别&lt;/font&gt;审批后，才可开通权限&lt;br&gt;2、必须抄送eppsystem@rp-pet.cn邮箱组&lt;br&gt;3、邮件中必须携带&lt;span&gt;《瑞鹏EPP权限开通名单申请模板.xlsx》&lt;/span&gt;&lt;/font&gt;" style="text;html=1;strokeColor=none;fillColor=none;align=left;verticalAlign=middle;whiteSpace=wrap;rounded=0;" vertex="1" parent="1">
          <mxGeometry x="160" y="500" width="460" height="80" as="geometry" />
        </mxCell>
        <mxCell id="ocNy0kaPVooyLEyPjIVk-17" value="&lt;font style=&quot;font-size: 24px&quot;&gt;瑞鹏EPP权限开通流程&lt;/font&gt;" style="text;html=1;strokeColor=none;fillColor=none;align=center;verticalAlign=middle;whiteSpace=wrap;rounded=0;" vertex="1" parent="1">
          <mxGeometry x="387" y="140" width="395" height="60" as="geometry" />
        </mxCell>
      </root>
    </mxGraphModel>
  </diagram>
</mxfile>
